<svg viewBox="0 0 4.233 4.233" xmlns="http://www.w3.org/2000/svg"><path fill="#eceff4" fill-rule="evenodd" d="M2.055.056C1.383.056.835.468.835.96c0 .237.119.541.43.541a.371.371 0 00.378-.36.382.382 0 00-.407-.379c-.073 0-.101-.045-.101-.102 0-.197.4-.462.784-.462.514 0 .706.434.706.824 0 .265-.119.796-.74.891-.372.057-.513.113-.513.204 0 .05.022.067.062.067.107 0 .338-.135.53-.135.582 0 .819.553.819.931 0 .407-.249 1.05-.915 1.05-.463 0-.722-.282-.722-.406 0-.062.028-.09.124-.09a.384.384 0 00.384-.367.376.376 0 00-.367-.379c-.31 0-.435.288-.435.491 0 .548.508.898 1.135.898.835 0 1.41-.565 1.41-1.152 0-.457-.383-.948-1.201-1.078.71-.163 1.033-.525 1.033-.948 0-.508-.56-.943-1.174-.943z" stroke-width=".265"/></svg>
