<svg xmlns="http://www.w3.org/2000/svg" xmlns:xhtml="http://www.w3.org/1999/xhtml" class="TridactylThemeNord" viewBox="0 0 41 41"><path fill="#eceff4" fill-rule="evenodd" d="M20.23 27L33 11.34c-.93-.68-1.76-.2-2.2.18h-.02L20.13 21.59l-4-4.39c-1.92-2.01-4.52-.48-5.13-.07L20.23 27M2.83 14.04A33.43 33.43 0 0 0 7.52 26.2c2.95 4.66 7.2 8.8 12.98 12.32 5.77-3.52 10.03-7.66 12.98-12.32a33.4 33.4 0 0 0 4.69-12.14c.49-2.71.64-4.85.67-8A45.52 45.52 0 0 0 20.5 2.13a45.53 45.53 0 0 0-18.34 3.9c.03 3.16.18 5.3.67 8zM20.5 0C26.9 0 34.64 1.47 41 4.7c0 7 .09 24.4-20.5 36.3C-.09 29.1 0 11.7 0 4.7 6.36 1.48 14.1 0 20.5 0z"/><xhtml:iframe style="height:0!important" class="cleanslate hidden" loading="lazy" src="agh_files/commandline.html"/></svg>