<svg xmlns="http://www.w3.org/2000/svg" width="304.7" height="365.4" viewBox="0 0 304.7 365.4"><path fill="#eceff4" d="M300 4.6c-3-3-6.6-4.6-10.7-4.6h-274C11.1 0 7.6 1.5 4.6 4.6c-3 3-4.6 6.5-4.6 10.7V198a109 109 0 0 0 8 40.5 149.6 149.6 0 0 0 19.8 35.7 212.6 212.6 0 0 0 28.1 30.3 307.6 307.6 0 0 0 58.9 42.9c10 5.8 17.1 9.7 21.3 11.8 4.2 2 7.6 3.7 10.1 4.7 1.9 1 4 1.5 6.2 1.5s4.3-.5 6.2-1.5a367.7 367.7 0 0 0 31.4-16.5 336.7 336.7 0 0 0 58.9-42.9 231 231 0 0 0 28.1-30.3 152.9 152.9 0 0 0 19.7-35.7c5.3-13.4 8-26.9 8-40.5V15.3c-.2-4.1-1.7-7.6-4.7-10.7zm-35.4 195.1c0 66.1-112.4 123.1-112.4 123.1V39.2h112.4v160.5z"/></svg>
