<svg xmlns="http://www.w3.org/2000/svg" viewBox="0 0 90 57.77"><path fill="#eceff4" d="M4.08 0A4.1 4.1 0 0 0 0 4.09v49.59a4.1 4.1 0 0 0 4.08 4.09h81.84A4.1 4.1 0 0 0 90 53.68V4.09A4.1 4.1 0 0 0 85.92 0zM7.9 6.3h74.2c.88 0 1.6.72 1.6 1.6v30.23c0 .88-.72 1.6-1.6 1.6H7.9a1.6 1.6 0 0 1-1.6-1.6V7.9c0-.88.72-1.6 1.6-1.6zm3.36 3.22a.7.7 0 0 0-.7.7.7.7 0 0 0 .7.7h67.48a.7.7 0 0 0 .7-.7.7.7 0 0 0-.7-.7zm9.17 6.56a3.28 3.28 0 0 0-3.28 3.29v12.7a3.28 3.28 0 0 0 3.28 3.29h49.14a3.28 3.28 0 0 0 3.28-3.29v-12.7a3.28 3.28 0 0 0-3.28-3.29zm6.16 5a4.65 4.65 0 1 1 0 9.3 4.65 4.65 0 0 1 0-9.3zm36.82 0a4.65 4.65 0 1 1 0 9.3 4.65 4.65 0 0 1 0-9.3zm-27.06.22h17.3c.35 0 .64.29.64.64v6.97c0 .35-.29.63-.64.63h-17.3a.64.64 0 0 1-.64-.63v-6.97c0-.35.29-.64.64-.64zM17.61 43.33h53.96c.97 0 1.81.67 2.04 1.62l2.75 11.58a.68.68 0 1 1-1.32.32l-2.76-11.59a.73.73 0 0 0-.71-.56H17.61a.73.73 0 0 0-.73.61l-1.9 11.5a.68.68 0 1 1-1.35-.23l1.9-11.5a2.1 2.1 0 0 1 2.08-1.75zm13.41 7.07h1.6c.7 0 1.27.58 1.27 1.29v1.26c0 .7-.57 1.28-1.28 1.28h-1.59c-.7 0-1.28-.58-1.28-1.28v-1.26c0-.71.57-1.29 1.28-1.29zm26.37.08h1.59c.7 0 1.28.57 1.28 1.28v1.26c0 .7-.57 1.28-1.28 1.28h-1.6c-.7 0-1.27-.58-1.27-1.28v-1.26c0-.71.57-1.28 1.28-1.28zm-34.55.92a2.16 2.16 0 1 1 0 4.32 2.16 2.16 0 0 1 0-4.32zm44.32.07a2.16 2.16 0 1 1 0 4.32 2.16 2.16 0 0 1 0-4.32z"/></svg>
