<svg xmlns="http://www.w3.org/2000/svg" viewBox="0 0 124.2 76.5"><path fill="#eceff4" d="M21.7 0C12 0-.7 6.8 0 23.9c1.1 26.7 25.5 29.2 35.2 29.4 1 5 12.5 22.3 21 23.2h37.2C115.7 75 132.4.8 120 .5a1015 1015 0 0 1-43 1.7v23.2l-3.2-1.7V2.2c-12 0-22.5-.6-42.4-1.7-2.5 0-6-.5-9.7-.5zM23 9.5h1.2c1.3 13.7 3.5 21.7 8 33.9C20.8 41.9 11 38.2 9.3 24.3 8.4 17 11.5 9.6 23 9.5zm44.3 13.4c.8 0 1.5.2 2.3.6l3.9 1.9-2.8 5.7a3.5 3.5 0 0 0-1.3.2 3.5 3.5 0 0 0-2 4.4 3.5 3.5 0 0 0 .5 1l-4.8 9.8a3.5 3.5 0 0 0-1.1.2 3.5 3.5 0 0 0-2.1 4.5 3.5 3.5 0 0 0 4.4 2 3.5 3.5 0 0 0 2.1-4.4 3.5 3.5 0 0 0-.8-1.3l4.7-9.5a3.5 3.5 0 0 0 1.5-.2 3.5 3.5 0 0 0 1.1-.7l4.3 2.2c1.6.9 2.2 1.4 2.4 2 .1.7 0 2-1 4.1a144 144 0 0 1-3 6.6 3.5 3.5 0 0 0-1.3.2 3.5 3.5 0 0 0-2.1 4.5 3.5 3.5 0 0 0 4.4 2 3.5 3.5 0 0 0 2.1-4.4 3.5 3.5 0 0 0-.7-1.2l3.1-6.6c1-2.4 1.5-4.1 1-5.8-.4-1.7-1.8-2.8-3.6-3.8l-4.4-2.2a3.5 3.5 0 0 0-.2-1.4 3.5 3.5 0 0 0-.8-1.2l2.8-5.6L91 34a5.5 5.5 0 0 1 2.5 7.3L83.1 62.6a5.5 5.5 0 0 1-7.3 2.5L54.4 54.7a5.5 5.5 0 0 1-2.5-7.3L62.3 26a5.5 5.5 0 0 1 5-3z"/></svg>
