<svg xmlns="http://www.w3.org/2000/svg" width="256.5" height="236" viewBox="0 0 256.5 236" version="1"><path fill="#e5e9f0" fill-rule="evenodd" d="M256.3 135l-15-44-28-88c-2-4-8-4-9 0l-29 88h-94l-29-88c-1-4-7-4-9 0l-28 88-15 44c-1 4 1 8 4 11l124 90 124-90c3-3 5-7 4-11"/><path fill="#eceff4" fill-rule="evenodd" d="M48.1 0c-1.8 0-3.8 1-4.8 3l-28 88h66l-29-88C51.8 1 50 0 48 0zm33.2 91l47 145 47-145zm94 0h66l-28-88c-2-4-8-4-9 0z"/><path fill="#d8dee9" fill-rule="evenodd" d="M15.3 91l-15 44c-1 4 1 8 4 11l124 90zm113 145l124-90c3-3 5-7 4-11l-15-44z"/></svg>
