<svg xmlns="http://www.w3.org/2000/svg" id="Layer_1" viewBox="0 0 249.6 249.6"><path id="C" fill="#eceff4" d="M111.3 0c-3.1 0-5.8 2-6.6 5l-4.4 15.2a7 7 0 0 1-4.7 4.7c-7.2 2.1-14.2 5-20.8 8.6a6.7 6.7 0 0 1-6.6 0l-13.9-7.7c-2.7-1.5-6-1-8.2 1.2L27 46.1a7 7 0 0 0-1.2 8.2l7.7 13.9a7 7 0 0 1 0 6.6c-3.6 6.6-6.5 13.6-8.6 20.8a6.7 6.7 0 0 1-4.7 4.7L5 104.7a7 7 0 0 0-5 6.6v27c0 3.1 2 5.8 5 6.6l15.2 4.4a7 7 0 0 1 4.7 4.7c2.1 7.2 5 14.2 8.6 20.8a6.7 6.7 0 0 1 0 6.6l-7.7 13.9c-1.5 2.7-1 6 1.2 8.2l19.1 19.1a7 7 0 0 0 8.2 1.2l13.9-7.7a7 7 0 0 1 6.6 0c6.6 3.6 13.6 6.5 20.8 8.6 2.3.7 4.1 2.4 4.7 4.7l4.4 15.2a7 7 0 0 0 6.6 5h27c3.1 0 5.8-2 6.6-5l4.4-15.2a7 7 0 0 1 4.7-4.7c7.2-2.1 14.2-5 20.8-8.6a6.7 6.7 0 0 1 6.6 0l13.9 7.7c2.7 1.5 6 1 8.2-1.2l19.1-19.1a7 7 0 0 0 1.2-8.2l-7.6-13.8a7 7 0 0 1 0-6.6c1.4-2.5 2.6-5 3.8-7.6.8-1.9-.5-4-2.6-4h-22.5a6.8 6.8 0 0 0-5.7 3.1 76 76 0 0 1-64.2 34.9 76 76 0 0 1-54.1-22.4 76 76 0 0 1-.1-108.2 76 76 0 0 1 54.1-22.4 76 76 0 0 1 64.2 34.9 7 7 0 0 0 5.7 3.1h22.6c2.1 0 3.4-2.1 2.6-4-1.2-2.6-2.4-5.1-3.8-7.6a7 7 0 0 1 0-6.6l7.6-13.8c1.5-2.7 1-6-1.2-8.2L203.5 27a7 7 0 0 0-8.2-1.2l-13.9 7.7a7 7 0 0 1-6.6 0c-6.6-3.6-13.6-6.5-20.8-8.6a6.7 6.7 0 0 1-4.7-4.7L144.9 5a7 7 0 0 0-6.6-5zM79.1 85.9v17.2h92.7V85.9zm0 30.6v17.2h76.4v-17.2zm0 30.6v17.2h92.7v-17.2z"/></svg>