<svg xmlns="http://www.w3.org/2000/svg" data-name="Layer 1" viewBox="0 0 431.3 298.3"><path fill="#eceff4" d="M140.5 14.5a95.8 95.8 0 0 1 45.5-11q50.4 0 64.2 43.8a139.1 139.1 0 0 1 37.5-31Q310 3.4 337.1 3.4q37.7 0 54 23T407.3 96v174c0 4.3.6 7.3 1.8 8.9s3.9 3 8 4.1l14.2 4.7v10.7h-84.5q-11 0-15.8-8.3t-5-24.9V85.2q0-26.6-5.8-37.9t-19.7-11.2q-22 0-46.7 26a210 210 0 0 1 2.5 33.8v174c0 4.3.6 7.3 1.8 8.9s3.9 3 8 4.1l14.1 4.7v10.7h-84.5q-11 0-15.8-8.3t-4.9-24.9V85.2q0-26.6-5.9-37.9t-19.7-11.2q-21.5 0-44.2 23.7v210c0 4.4.6 7.5 1.8 9.2s3.7 3.3 7.5 4.5l13.8 4.1v10.7H0v-10.7l14.2-4.7q6.1-1.8 8-4.1c1.2-1.6 1.8-4.6 1.8-9V46.3q0-6.5-1.9-9t-7.9-4L0 28.3V17.8L97.5 0h6.9v41.4a142.5 142.5 0 0 1 36.1-26.9z"/></svg>