<svg xmlns="http://www.w3.org/2000/svg" xmlns:xlink="http://www.w3.org/1999/xlink" version="1" viewBox="0 0 502 435"><defs><linearGradient id="d"><stop offset="0" stop-color="#699ad7"/><stop offset="0" stop-color="#7eb1dd"/><stop offset="1" stop-color="#7ebae4"/></linearGradient><linearGradient id="c"><stop offset="0" stop-color="#415e9a"/><stop offset="0" stop-color="#4a6baf"/><stop offset="1" stop-color="#5277c3"/></linearGradient><linearGradient id="a"><stop offset="0" stop-color="#637ddf"/><stop offset="0" stop-color="#649afa"/><stop offset="1" stop-color="#719efa"/></linearGradient><linearGradient id="b"><stop offset="0" stop-color="#7363df"/><stop offset="0" stop-color="#6478fa"/><stop offset="1" stop-color="#719efa"/></linearGradient><linearGradient id="e" x1="214" x2="282" y1="339" y2="516" gradientTransform="translate(983 601)" gradientUnits="userSpaceOnUse" xlink:href="#a"/></defs><g fill-rule="evenodd" color="#000"><path fill="#5e81ac" d="M154 0h-29l-14 24 33 57H78l-27 49h244l-28-49h-67L154 0zm273 88L305 299h56l33-57h93l15-25-14-24h-66l33-57-28-48zM153 223l-28 49 33 58-47 80 15 25h28l32-57 33 57h56L153 223z" overflow="visible" style="isolation:auto;mix-blend-mode:normal"/><path fill="#88c0d0" d="M283 0l-56 1 122 211 28-49-33-58 46-80-14-25h-28l-33 57-32-57zm-86 136h-56l-34 58-93-1-14 25 14 24h65l-33 57 29 48 122-211zm10 169l28 49h67l46 81h28l14-25-32-56h65l28-49H207z" overflow="visible" style="isolation:auto;mix-blend-mode:normal"/></g></svg>