<svg xmlns:svg="http://www.w3.org/2000/svg" xmlns:xhtml="http://www.w3.org/1999/xhtml" id="svg5358" width="144.2" height="140.8" version="1.1" viewBox="0 0 135.1 132"><g id="layer4" display="inline" transform="translate(-215.9 -24.4)"/><g id="layer1" transform="translate(-215.9 -757.9)"><path id="path28" fill="#eceff4" fill-opacity="1" fill-rule="nonzero" stroke="none" stroke-width="1.5" d="m 336.86481,807.19301 c 0,16.17714 -13.11459,29.29082 -29.29173,29.29082 -16.17714,0 -29.2908,-13.11368 -29.2908,-29.29082 0,-16.17714 13.11366,-29.29173 29.2908,-29.29173 16.17714,0 29.29173,13.11459 29.29173,29.29173" display="inline"/><path id="path32" fill="#eceff4" fill-opacity="1" fill-rule="nonzero" stroke="none" stroke-width="1.5" d="m 230.06431,772.0434 9.01284,23.65824 -9.01284,23.65825 9.01284,23.65824 -9.01284,23.65823 5.53443,2.11303 30.06556,-30.05152 5.3933,0.83082 6.54842,-6.54843 c -3.86345,-4.47652 -6.75589,-9.81748 -8.33622,-15.7164 l 3.07001,-2.52048 c -0.52802,-2.44947 -0.81679,-4.98586 -0.81679,-7.59046 0,-13.01087 6.93906,-24.44327 17.307,-30.78421 l -11.44922,-4.36531 -23.65824,9.01284 z" display="inline"/><path id="path36" fill="#eceff4" fill-opacity="1" fill-rule="nonzero" stroke="none" stroke-width="1.5" d="m 330.61227,834.89293 c -6.25404,5.21293 -14.28466,8.35117 -23.03864,8.35117 -2.6046,0 -5.14097,-0.28972 -7.59044,-0.8168 l -2.5205,3.07001 c -5.60171,-1.50089 -10.70718,-4.17091 -15.03978,-7.74558 l -6.77365,6.78766 0.83081,5.01295 -25.1937,25.20773 2.43638,0.92895 23.65824,-9.0119 23.65825,9.0119 23.65824,-9.0119 9.01284,-23.65825 z" display="inline"/></g></svg>
