<svg xmlns="http://www.w3.org/2000/svg" id="svg23" viewBox="0 0 88.32 129.93"><defs id="defs9"><linearGradient id="New_Gradient_Swatch_1" x1="2.71" x2="69.77" y1="20.04" y2="20.04" gradientUnits="userSpaceOnUse"><stop id="stop2" offset="0" stop-color="#12b212"/><stop id="stop4" offset="1" stop-color="#0f0"/></linearGradient></defs><path id="path13" fill="#e5e9f0" d="M36.56 39.93c-11.57-1.11-22.43-8.07-28.03-18.3C4.8 15.06 3.08 7.51 2.71 0c10.7-.1 22.05 3 29.53 11.04 6.97 7.33 9.9 17.57 10.4 27.47 1.34-8.43 5.1-17.2 12.7-21.75A23.54 23.54 0 0 1 69.7 13.5c.67 7.6-2.66 15.4-8.75 20.04-5.18 4.1-11.76 6.2-18.32 6.55-3.23-5.8-8.15-10.42-12.72-15.15A306.52 306.52 0 0 0 13.2 9.53c1.44 1.54 3.32 3.02 4.86 4.6 6.2 6.07 12.5 12.29 16.83 19.9.93 1.81 1.82 3.8 1.67 5.9z"/><path id="path15" fill="#d8dee9" d="M44.16 129.93c-1.57-.09-16.22-.65-17.11-17.11-.72-10 7.18-17.37 7.18-27.08C32.44 61.53 0 64.53 0 85.74a19.94 19.94 0 0 0 5.83 14.14L30 124.06a19.94 19.94 0 0 0 14.14 5.83" class="cls-2"/><path id="path19" fill="#d8dee9" d="M44.16 41.59c1.57.09 16.22.65 17.11 17.11.72 10-7.18 17.37-7.18 27.08 1.79 24.21 34.22 21.21 34.22 0a19.94 19.94 0 0 0-5.83-14.14L58.3 47.45a19.94 19.94 0 0 0-14.14-5.83" class="cls-2"/><path id="path17" fill="#eceff4" d="M88.32 85.75c-.09 1.57-.65 16.22-17.11 17.11-10 .72-17.38-7.18-27.08-7.18-24.21 1.79-21.21 34.22 0 34.22a19.94 19.94 0 0 0 14.14-5.83L82.46 99.9a19.94 19.94 0 0 0 5.83-14.14" class="cls-3"/><path id="path21" fill="#eceff4" d="M.08 85.75c.09-1.57.65-16.22 17.11-17.11 10-.72 17.38 7.18 27.08 7.18 24.21-1.82 21.21-34.22 0-34.22a19.94 19.94 0 0 0-14.14 5.83L5.94 71.61A19.94 19.94 0 0 0 .11 85.75" class="cls-3"/></svg>