<svg xmlns="http://www.w3.org/2000/svg" viewBox="0 0 306 256"><path fill="#eceff4" d="M176.2 0a6 6 0 0 0-5.8 4.3l-22 69.8a6 6 0 0 0 0 4.3c-37.6.7-71.4 11.4-95.4 28a30 30 0 1 0-35 47c-1.2 4.5-1.8 9-1.8 13.8 0 49.2 61 89 136.2 89 75.2 0 136-39.8 136-89 0-4.4-.4-9-1.4-13.2l.7-.3a30 30 0 0 0-13.3-57.6c-8.5.3-16.5 4.6-21.8 11.2-23.4-16.6-56.2-27.3-92.8-28.6a6 6 0 0 0 .2-.6l20.4-64.4L235 26.2a6 6 0 0 0 2.2 0 23.7 23.7 0 1 0 2.2-10.9 6 6 0 0 0-1.7-.7L177.6.3a6 6 0 0 0-1.2-.3 6 6 0 0 0-.2 0zM105 127.8a22 22 0 0 1 22 22 22 22 0 0 1-22 22 22 22 0 0 1-22-22 22 22 0 0 1 22-22zm96 0a22 22 0 0 1 22 22 22 22 0 0 1-22 22 22 22 0 0 1-22-22 22 22 0 0 1 22-22zm-.4 73.9a6 6 0 0 1 3.8 10.7c-13.7 13.7-34 15.7-50.5 15.8a6 6 0 0 1-.8 0 6 6 0 0 1-.3 0h-1.1c-16.4 0-36.7-2.2-50.3-15.8a6 6 0 0 1 4.2-10.6 6 6 0 0 1 4.3 2c9.8 9.7 27.3 12.3 42.6 12.3a6 6 0 0 1 .2 0c15.3 0 32.7-2.5 42.5-12.3a6 6 0 0 1 4.3-2l.5-.1a6 6 0 0 1 .6 0z"/></svg>