<svg xmlns="http://www.w3.org/2000/svg" viewBox="0 0 68.2 64.66"><path fill="#eceff4" d="M51.35.06c-1.39.33-2.73.86-4.1 1.24-1.7.47-3.43.94-5.1 1.5-1.02.34-2.54.44-3.17 1.43-.54.86-.04 1.84.19 2.7.57 2.18 1.25 4.34 1.91 6.5a639.5 639.5 0 0 1 4.6 15.7c.88 3.15 1.95 6.24 2.79 9.4 1.24 4.7 2.81 9.32 4.11 14 .43 1.53.77 4.22 2.97 3.77 1.18-.25 2.33-.71 3.5-1.04 1.9-.53 3.8-1.09 5.7-1.66 1.06-.33 2.58-.42 3.2-1.47.52-.9-.02-2.1-.3-3-.67-2.08-1.28-4.2-1.87-6.3-1.67-6.02-3.6-11.98-5.26-18-.71-2.55-1.58-5.05-2.25-7.6-1.21-4.57-2.8-9.03-4-13.6-.4-1.47-.8-4.07-2.92-3.57m-49.7 1.2C-.3 1.66.05 3.82.05 5.33v47.1c0 .95-.24 2.28.33 3.1.77 1.1 2.2.8 3.37.8h9.4c.34 0 .77.07 1.1-.03 1.77-.55 1.3-3.17 1.3-4.57V4.63c0-.92.16-2.07-.52-2.8-.82-.9-2.39-.6-3.48-.6h-6.6c-1.05 0-2.28-.18-3.3.03m19.7 0c-1.94.4-1.6 2.56-1.6 4.07v47.6c0 .94-.18 2.13.53 2.87.81.84 2.3.53 3.37.53h9.2c.34 0 .77.07 1.1-.03 1.77-.55 1.3-3.17 1.3-4.57V4.63c0-.92.16-2.07-.52-2.8-.82-.9-2.39-.6-3.48-.6h-6.6c-1.05 0-2.28-.18-3.3.03M.75 59.16c-.46.16-.66.62-.7 1.07-.07.68 0 1.41 0 2.1 0 .45-.07.96.03 1.4.1.42.33.76.77.87.52.13 1.16.03 1.7.03H66.45c.45 0 1 .09 1.38-.23.37-.32.32-.83.32-1.27 0-1.05.11-2.16 0-3.2a.92.92 0 0 0-.6-.77c-.32-.1-.77-.03-1.1-.03H2.35c-.48 0-1.15-.12-1.6.03z"/></svg>
