<svg xmlns="http://www.w3.org/2000/svg" width="71.71" height="67.67" viewBox="0 0 71.71 67.67"><g fill="#eceff4"><path d="M42.95 38.83l-1.12 1.13A839.62 839.62 0 0 1 21.45 59.7a3.38 3.38 0 0 1-4.55.06l-.1.17-3.64 5.03a1.28 1.28 0 0 1-1.89.21c-.03-.03-3.33-2.84-5.18-1.27l-3.97 3.45a1.28 1.28 0 0 1-2.12-1c.01-.4.1-.59.45-.93l.41-.36.16-.14 11.03-9.58c.12-.11.26-.19.4-.24a3.38 3.38 0 0 1 .54-3.86 843.17 843.17 0 0 1 19.74-20.37l1.13-1.13zM35.13 18.49c.15.15.27.31.38.48L35 20.13a.51.51 0 0 0 .26.67c.26.12.56 0 .68-.26l.53-1.21c.73-.53 1.55-1.35 2.4-2.61.81-1.2 1.51-2.27 2.15-3.25 3-4.6 4.82-7.38 9.68-10.49C53 1.52 56.56.13 58.34 0c.45-.03.88.14 1.2.45l2.8 2.8.86-.58c1.45-.91 4.84-3.06 7.34-.56s.35 5.9-.57 7.34a72.54 72.54 0 0 1-4.95 6.64 351.85 351.85 0 0 1-17.99 19.9c-.54.57-1.26.93-2.04 1.05l-9.26-9.27-.13-.1c.12-.78.48-1.5 1.05-2.06A351.35 351.35 0 0 1 56.56 7.63c1.18-.96 2.26-1.81 3.24-2.56l-1.89-1.9c-1.41.33-3.9 1.33-5.56 2.4-4.3 2.75-5.8 5.03-8.76 9.58-.65.99-1.35 2.08-2.17 3.28-3.75 5.57-7.74 5-8.7 4.77a2.78 2.78 0 1 1 2.4-4.7z"/></g></svg>
