<svg xmlns="http://www.w3.org/2000/svg" viewBox="0 0 49 45"><path fill="#eceff4" fill-rule="evenodd" d="M18.67 0a4.27 4.27 0 0 0-4.37 4.2v3.79a120.8 120.8 0 0 0 .43 9.89c.17 2.03.4 4.25.76 6.62l.3 1.8.16.88.18.9c.25 1.22.53 2.47.85 3.74.32 1.28.7 2.57 1.17 3.9a22.9 22.9 0 0 0 2.3 4.68h-1.06a4.62 4.62 0 0 1-1.87-.69 9.08 9.08 0 0 1-2.3-2.21 23.77 23.77 0 0 1-3.2-6.38 35.05 35.05 0 0 1-1-3.4l-.18-.82-.1-.43-.07-.4-.15-.83c-.04-.28-.13-.57-.13-.85-.35-2.26-.59-4.52-.8-6.51-.42-4.1-.66-7.56-.82-9.97l-.18-2.79-.06-1-.02-.03v-.34a4.28 4.28 0 1 0-8.47 1.2l.14 1L.6 8.78c.37 2.44.9 5.9 1.68 10.1.43 2.09.84 4.35 1.43 6.8l.23.93.26 1 .13.48.15.48c.1.36.21.67.32 1 .45 1.31.97 2.6 1.56 3.87.6 1.32 1.29 2.6 2.05 3.82.8 1.32 1.73 2.55 2.76 3.68a13.94 13.94 0 0 0 3.99 3.1 9.33 9.33 0 0 0 4.09.96h.66l.67-.08a6.85 6.85 0 0 0 1.33-.3 11.2 11.2 0 0 0 2.04-.82c1.02.58 2.16.95 3.34 1.06h2.02l.67-.13c.44-.1.87-.24 1.28-.4.77-.33 1.5-.74 2.17-1.23 1.19-.9 2.26-1.96 3.16-3.14a37.6 37.6 0 0 0 4.14-6.87 77.8 77.8 0 0 0 2.81-6.72c.8-2.14 1.49-4.22 2.08-6.13a171.7 171.7 0 0 0 3.17-11.92l.21-.93-.3.9c-.2.55-.5 1.46-.9 2.54-.8 2.18-1.96 5.28-3.53 8.92-.79 1.8-1.67 3.78-2.68 5.8-1 2-2.12 4.1-3.4 6.16a34.49 34.49 0 0 1-4.4 5.81c-.79.83-1.68 1.55-2.66 2.14a5.98 5.98 0 0 1-2 .7h-.6l.23-.23a42.48 42.48 0 0 0 5.16-6.61 74.49 74.49 0 0 0 3.8-6.65 109.46 109.46 0 0 0 6.51-15.65c.4-1.22.73-2.45 1-3.7a35.9 35.9 0 0 1-1.38 3.56c-.96 2.2-2.5 5.34-4.49 8.97-1 1.82-2.12 3.75-3.44 5.74-1.33 2-2.72 4.04-4.31 6.03a39.1 39.1 0 0 1-5.33 5.59c-.34.28-.69.56-1.05.82-.2-.32-.38-.65-.52-1a17.8 17.8 0 0 1-1.07-3.15c-.28-1.12-.5-2.28-.68-3.43-.17-1.16-.3-2.32-.42-3.47l-.16-1.72-.12-1.64a112.71 112.71 0 0 1 .28-15.49c.08-1.13.17-2 .23-2.6l.1-.88-.02-.1v-.38A4.28 4.28 0 0 0 18.67 0z"/></svg>
